# xmcd CD database file
#
# Track frame offsets:
#	150
#	24162
#	40375
#	57839
#	73144
#	90807
#	101477
#	114248
#	134647
#	152330
#	165049
#	185832
#	205106
#	214531
#	233217
#	250551
#
# Disc length: 3625 seconds
#
# Revision: 0
# Processed by: cddbd v1.5.1PL2 Copyright (c) Steve Scherf et al.
# Submitted via: CDex 1.51
#
DISCID=c30e2710
DTITLE=Sólo contigo - Identidad
DYEAR=2004
DGENRE=Jazz
TTITLE0=Identidad
TTITLE1=Canchan
TTITLE2=El Cariñito
TTITLE3=Guantanamera
TTITLE4=El Jardin
TTITLE5=La Chica de Jpanema (Instrumental)
TTITLE6=El Traguito
TTITLE7=Hasta Siempre Comandante
TTITLE8=Solo Contigo
TTITLE9=Hojas Muertas (Instrumental)
TTITLE10=El Carnaval
TTITLE11=Yolanda
TTITLE12=Maridos Majaderos
TTITLE13=Amorosa Guajira
TTITLE14=Son de la Loma
TTITLE15=Si Señor
EXTD=YEAR: 2004
EXTT0=
EXTT1=
EXTT2=
EXTT3=
EXTT4=
EXTT5=
EXTT6=
EXTT7=
EXTT8=
EXTT9=
EXTT10=
EXTT11=
EXTT12=
EXTT13=
EXTT14=
EXTT15=
PLAYORDER=
